<svg width="9" height="8" viewBox="0 0 9 8" fill="none" xmlns="http://www.w3.org/2000/svg">
<path d="M3.78067 8C3.66915 8 3.56877 7.96504 3.47955 7.89513C3.40149 7.81523 3.36245 7.72534 3.36245 7.62547V4.91386H0.418216C0.306691 4.91386 0.20632 4.8789 0.1171 4.80899C0.0390335 4.72909 0 4.6392 0 4.53933V3.38577C0 3.27591 0.0390335 3.18602 0.1171 3.1161C0.195167 3.0362 0.295539 2.99625 0.418216 2.99625H3.36245V0.374531C3.36245 0.264669 3.40149 0.174781 3.47955 0.104869C3.56877 0.0349561 3.66915 0 3.78067 0H5.21933C5.34201 0 5.44238 0.0349561 5.52045 0.104869C5.60967 0.174781 5.65428 0.264669 5.65428 0.374531V2.99625H8.56506C8.68773 2.99625 8.7881 3.0362 8.86617 3.1161C8.95539 3.18602 9 3.27591 9 3.38577V4.53933C9 4.64919 8.95539 4.73908 8.86617 4.80899C8.7881 4.8789 8.68773 4.91386 8.56506 4.91386H5.65428V7.62547C5.65428 7.73533 5.60967 7.82522 5.52045 7.89513C5.44238 7.96504 5.34201 8 5.21933 8H3.78067Z" fill="#FF6633"/>
</svg>
